<svg xmlns="http://www.w3.org/2000/svg" viewBox="0 0 66.06 54.33"><defs><style>.cls-1{fill:#efefef;}.cls-2{fill:#fff;}.cls-3{fill:#4d4d4d;}.cls-4{fill:#e0e0e0;}.cls-5{fill:#ccc;}.cls-6{fill:#aaa;}</style></defs><title>Checklist</title><g id="Layer_2" data-name="Layer 2"><g id="Layer_1-2" data-name="Layer 1"><path class="cls-1" d="M37.57,53.93C30.68,55.72,22.06,51.27,14,45.18S-1.54,31.31.27,25.12,13.16,14.33,20.45,9.88,31.22,1.13,35.57.2s9.55,1.51,15.89,5,13.8,8,14.54,13.28S60.75,30,55.18,37,44.47,52.15,37.57,53.93Z"/><path class="cls-2" d="M15.82,51.77A3.84,3.84,0,0,1,12,47.94V12.78a.26.26,0,0,1,.07-.17L23.3,1.37a.25.25,0,0,1,.18-.08H46A3.84,3.84,0,0,1,49.8,5.12V47.94A3.84,3.84,0,0,1,46,51.77Z"/><path class="cls-3" d="M46,1.54a3.6,3.6,0,0,1,3.58,3.58V47.94A3.59,3.59,0,0,1,46,51.52H15.82a3.59,3.59,0,0,1-3.58-3.58V12.78L23.48,1.54H46M46,1H23.48a.55.55,0,0,0-.36.15L11.89,12.43a.47.47,0,0,0-.15.35V47.94A4.08,4.08,0,0,0,15.82,52H46a4.08,4.08,0,0,0,4.08-4.08V5.12A4.08,4.08,0,0,0,46,1Z"/><path class="cls-3" d="M44.53,41H28.19a.76.76,0,0,0-.76.76.75.75,0,0,0,.76.75H44.53a.74.74,0,0,0,.75-.75A.75.75,0,0,0,44.53,41Z"/><path class="cls-3" d="M44.53,30.85H28.19a.76.76,0,1,0,0,1.52H44.53a.76.76,0,0,0,0-1.52Z"/><path class="cls-3" d="M28.19,22.24H44.53a.76.76,0,0,0,0-1.51H28.19a.76.76,0,1,0,0,1.51Z"/><path class="cls-3" d="M23.74,37.67l-4.68,4.68L17,40.28a.77.77,0,0,0-1.07,0,.76.76,0,0,0-.23.54.72.72,0,0,0,.23.53L18.52,44a.76.76,0,0,0,1.08,0l5.21-5.22a.75.75,0,0,0,0-1.07A.77.77,0,0,0,23.74,37.67Z"/><path class="cls-3" d="M23.74,27.55l-4.68,4.68L17,30.16a.76.76,0,1,0-1.07,1.07l2.6,2.6a.76.76,0,0,0,1.08,0l5.21-5.21a.76.76,0,0,0-1.07-1.07Z"/><path class="cls-3" d="M23.74,17.42,19.06,22.1,17,20a.76.76,0,1,0-1.07,1.07l2.6,2.61a.78.78,0,0,0,1.08,0l5.21-5.22a.75.75,0,0,0,0-1.07A.77.77,0,0,0,23.74,17.42Z"/><path class="cls-4" d="M14.24,47.94V12.78L24,3.05V1.54h-.48L12.24,12.78V47.94a3.59,3.59,0,0,0,3.58,3.58h2A3.59,3.59,0,0,1,14.24,47.94Z"/><path class="cls-5" d="M12.26,13.06A.25.25,0,0,1,12,12.9a.25.25,0,0,1,.06-.27L23.28,1.34a.26.26,0,0,1,.17-.07l.1,0a.25.25,0,0,1,.15.23l.05,11.24a.26.26,0,0,1-.07.18.29.29,0,0,1-.18.07Z"/><path class="cls-3" d="M23.45,1.52l.05,11.24-11.24.05L23.45,1.52m0-.5a.49.49,0,0,0-.35.15L11.91,12.45a.51.51,0,0,0-.11.55.5.5,0,0,0,.46.31h0l11.23-.05a.49.49,0,0,0,.36-.15.5.5,0,0,0,.14-.35L24,1.52a.5.5,0,0,0-.31-.46.41.41,0,0,0-.19,0Z"/><polygon class="cls-6" points="23.45 1.52 12.26 12.81 14.26 12.8 23.46 3.52 23.45 1.52"/></g></g></svg>