<?xml version="1.0" ?><svg viewBox="0 0 512 512" xmlns="http://www.w3.org/2000/svg"><title/><g id="garbage_cleaning_properly"><path d="M462.08,71.69H420.34a19.2,19.2,0,0,0-19.16,19.2v97.63H327.09c-2.66-1.76-5.4-3.43-8.19-5V90.89a19.2,19.2,0,0,0-19.16-19.2H258a19.2,19.2,0,0,0-19.16,19.2v77.43a129.14,129.14,0,0,0-26.93,6.6A69.16,69.16,0,0,0,198.83,142l-43-58.36v-22h13.62a7,7,0,0,0,7-7v-27A19.35,19.35,0,0,0,157.11,8.3H89.32A19.35,19.35,0,0,0,70,27.63v27a7,7,0,0,0,7,7H89.37V85.71l-42.29,56a70.14,70.14,0,0,0-14.09,42V462.93a39.93,39.93,0,0,0,39.88,39.88h99.69a39.93,39.93,0,0,0,39.88-39.88V418.47a128.23,128.23,0,0,0,26.4,6.42V470.5a32.3,32.3,0,0,0,32.21,32.31H449a32.29,32.29,0,0,0,32.2-32.31V90.89A19.19,19.19,0,0,0,462.08,71.69Zm-61,130.83a15.78,15.78,0,0,1-15.62,14H357.56a130.11,130.11,0,0,0-12.79-14Zm-29.64,94.09A115.42,115.42,0,1,1,256,181.19,115.55,115.55,0,0,1,371.42,296.61Zm-118.58-186h30a7,7,0,0,0,0-14h-30V90.89a5.19,5.19,0,0,1,5.16-5.2h41.74a5.19,5.19,0,0,1,5.16,5.2v85.9a128.62,128.62,0,0,0-48.9-9.6c-1.06,0-2.11,0-3.16,0ZM84,47.65v-20a5.33,5.33,0,0,1,5.33-5.33h67.79a5.33,5.33,0,0,1,5.33,5.33v20H84Zm57.83,14V75.1H103.37V61.65Zm56.62,401.28a25.91,25.91,0,0,1-25.88,25.88H167.5l9.65-16.14a7,7,0,0,0-12-7.19l-14,23.33h-19.6V469.07a7,7,0,0,0-14,0v19.74H98L84,465.48a7,7,0,1,0-12,7.19l9.65,16.14h-8.8A25.91,25.91,0,0,1,47,462.93V349.54h62.56a7,7,0,1,0,0-14H47V281.9h62.56a7,7,0,1,0,0-14H47V183.76a56.11,56.11,0,0,1,11.26-33.6L104.36,89.1h38.11l45.09,61.18a55.32,55.32,0,0,1,10.81,30.47,129.38,129.38,0,0,0,.07,231.75ZM449,488.81h-178a18.26,18.26,0,0,1-18.15-17.13H467.17A18.25,18.25,0,0,1,449,488.81Zm18.2-31.13H252.84V426c1,0,2.1,0,3.16,0A129.37,129.37,0,0,0,367.21,230.48h18.23a29.82,29.82,0,0,0,29.74-29.83v-90h30a7,7,0,1,0,0-14h-30V90.89a5.19,5.19,0,0,1,5.16-5.2h41.74a5.18,5.18,0,0,1,5.15,5.2Z"/><path d="M235.92,230.2v44.28h-21.4a16.21,16.21,0,0,0-16.12,14.39l-2.14,19h0l-1.35,12c-.83,7.39-4.48,14.64-10.84,21.57a12.7,12.7,0,0,0,9.33,21.3h107a18,18,0,0,0,18-19.32l-2.56-35.12h0l-1.36-18.74a16.27,16.27,0,0,0-16.17-15H277.21V230.2a20.65,20.65,0,1,0-41.29,0Zm69.46,114.11a5,5,0,0,1-5,5.38h-9.31l-1.24-14.82a6.5,6.5,0,0,0-13,1.09L278,349.69H260.61V335.42a6.5,6.5,0,1,0-13,0v14.27H230.2L231.36,336a6.5,6.5,0,0,0-13-1.09l-1.24,14.82H194.1c8-8.86,12.6-18.41,13.73-28.41l.7-6.2,94.73.13Zm-7.12-56.83a3.22,3.22,0,0,1,3.2,3l.86,11.75L210,302.09l1.32-11.76a3.21,3.21,0,0,1,3.2-2.85ZM248.92,230.2a7.65,7.65,0,1,1,15.29,0v42.13H248.92Z"/></g></svg>