<?xml version="1.0" encoding="UTF-8"?>
<!-- Generator: Adobe Illustrator 22.0.1, SVG Export Plug-In . SVG Version: 6.00 Build 0)  -->
<svg xmlns="http://www.w3.org/2000/svg" xmlns:xlink="http://www.w3.org/1999/xlink" xmlns:dc="http://purl.org/dc/elements/1.1/" xmlns:cc="http://creativecommons.org/ns#" xmlns:rdf="http://www.w3.org/1999/02/22-rdf-syntax-ns#" version="1.1" id="designs" x="0px" y="0px" width="32px" height="32px" viewBox="0 0 32 32" style="enable-background:new 0 0 32 32;" xml:space="preserve">
<title property="dc:title">to smell</title><desc property="dc:description">An icon for "smell" from the Science and Fiction series on to [icon]. Downloaded from http://www.toicon.com/icons/science-and-fiction_smell by 181.59.57.126 on 2018-02-07. Licensed CC-BY, see http://toicon.com/license/ for details.</desc>
<path class="scienceandfiction_twee" d="M22,11v1h-4v-1H22L22,11z M17,11h-1v1h1V11L17,11z M28,11h-3v1h3V11L28,11z M28,7h-3v1h3V7  L28,7z M30,9h-3v1h3V9L30,9z M24,11h-1v1h1V11L24,11z M24,7h-1v1h1V7L24,7z M18,9h-3v1h3V9L18,9z M20,9h-1v1h1V9L20,9z M13,9h-1v1h1  V9L13,9z M22,7h-4v1h4V7L22,7z M17,7h-1v1h1V7L17,7z M24,9h-3v1h3V9L24,9z M26,9h-1v1h1V9L26,9z" style="fill: #CC2954;"/>
<path class="scienceandfiction_een" d="M20.667,16L20,14h-5.002v-3H14V7h-4v2H7.95C7.705,7.306,6.262,6,4.5,6C2.567,6,1,7.567,1,9.5  S2.567,13,4.5,13c1.762,0,3.205-1.306,3.45-3H10v1H9v3H4l-0.667,2H3v9h0.333L4,27h16l0.667-2H21v-9H20.667z M4.5,12  C3.122,12,2,10.878,2,9.5S3.122,7,4.5,7S7,8.122,7,9.5S5.878,12,4.5,12z M11,8h2v3h-2V8z M9.998,12H10h4v2H9.998V12z M4.721,15  h14.558l0.333,1H4.387L4.721,15z M19.279,26H4.721l-0.333-1h15.225L19.279,26z M20,24H4v-7h16V24z" style="fill: #2B4099;"/>
<metadata><work rdf:about=""><format>image/svg+xml</format><type rdf:resource="http://purl.org/dc/dcmitype/StillImage"/><license rdf:resource="http://creativecommons.org/licenses/by/4.0/"/><attributionname>Kamila Piątkowska</attributionname><attributionurl>http://www.toicon.com/icons/science-and-fiction_smell</attributionurl></work></metadata></svg>
