<?xml version="1.0" encoding="UTF-8"?>
<svg xmlns="http://www.w3.org/2000/svg" xmlns:xlink="http://www.w3.org/1999/xlink" viewBox="0 0 64 64" width="64px" height="64px">
<g id="surface705319">
<path style=" stroke:none;fill-rule:nonzero;fill:rgb(72.549021%,5.098039%,5.098039%);fill-opacity:1;" d="M 25.984375 4 C 22.703125 4 20 6.703125 20 9.984375 L 20 12 L 8 12 L 8 16 L 12 16 L 12 50 C 12 53.3125 14.6875 56 18 56 L 42 56 C 45.3125 56 48 53.3125 48 50 L 48 16 L 52 16 L 52 12 L 40 12 L 40 9.984375 C 40 6.703125 37.296875 4 34.015625 4 Z M 25.984375 8 L 34.015625 8 C 35.140625 8 36 8.859375 36 9.984375 L 36 12 L 24 12 L 24 9.984375 C 24 8.859375 24.859375 8 25.984375 8 Z M 20 20 L 24 20 L 24 48 L 20 48 Z M 28 20 L 32 20 L 32 48 L 28 48 Z M 36 20 L 40 20 L 40 48 L 36 48 Z M 36 20 "/>
</g>
</svg>
