<svg xmlns="http://www.w3.org/2000/svg" viewBox="0 0 63.87 62.34"><defs><style>.cls-1{fill:#efefef;}.cls-2{fill:#ccc;}.cls-3{fill:#4d4d4d;}.cls-4{fill:#aaa;}.cls-5{fill:#f79;}.cls-6{fill:#ef608f;}.cls-7{fill:#f44c81;}.cls-8{fill:#e0447c;}.cls-9{fill:#fff;}.cls-10{fill:#e0e0e0;}.cls-11{fill:#ffd9c7;}.cls-12{fill:#f2b9a7;}.cls-13{fill:#d89078;}.cls-14{fill:#bc6e5c;}</style></defs><title>Cart 1</title><g id="Layer_2" data-name="Layer 2"><g id="Layer_1-2" data-name="Layer 1"><path class="cls-1" d="M46.93,11c6.79,5.18,15,10.5,16.64,17.42S60.13,43.85,53.34,49.45,38,57.74,28.57,58.67s-19.83.1-24.17-5.51-2.65-16-.79-24.5S7.5,13.48,11.84,8.3s11-8.89,17-8.22S40.14,5.79,46.93,11Z"/><rect class="cls-2" x="39.54" y="23.7" width="8.79" height="6.68" rx="0.25" ry="0.25"/><path class="cls-3" d="M48.08,24v6.18H39.79V24h8.29m0-.5H39.79a.5.5,0,0,0-.5.5v6.18a.5.5,0,0,0,.5.5h8.29a.5.5,0,0,0,.5-.5V24a.5.5,0,0,0-.5-.5Z"/><rect class="cls-4" x="39.79" y="23.95" width="3.35" height="6.18"/><rect class="cls-5" x="6.37" y="20.98" width="8.79" height="9.4" rx="0.25" ry="0.25"/><path class="cls-3" d="M14.91,21.23v8.9H6.62v-8.9h8.29m0-.5H6.62a.51.51,0,0,0-.5.5v8.9a.5.5,0,0,0,.5.5h8.29a.5.5,0,0,0,.5-.5v-8.9a.5.5,0,0,0-.5-.5Z"/><rect class="cls-6" x="6.62" y="21.23" width="3.35" height="8.9"/><rect class="cls-7" x="14.67" y="15.38" width="8.79" height="15" rx="0.25" ry="0.25"/><path class="cls-3" d="M23.21,15.63v14.5h-8.3V15.63h8.3m0-.5h-8.3a.51.51,0,0,0-.5.5v14.5a.5.5,0,0,0,.5.5h8.3a.5.5,0,0,0,.5-.5V15.63a.51.51,0,0,0-.5-.5Z"/><polygon class="cls-8" points="18.27 15.63 14.91 15.63 14.91 21.23 14.91 30.13 18.27 30.13 18.27 21.23 18.27 15.63"/><rect class="cls-9" x="22.96" y="11.59" width="17.08" height="18.79" rx="0.25" ry="0.25"/><path class="cls-3" d="M39.79,11.84V30.13H23.21V11.84H39.79m0-.5H23.21a.5.5,0,0,0-.5.5V30.13a.5.5,0,0,0,.5.5H39.79a.5.5,0,0,0,.5-.5V11.84a.5.5,0,0,0-.5-.5Z"/><polygon class="cls-10" points="26.56 11.84 23.21 11.84 23.21 15.63 23.21 30.13 26.56 30.13 26.56 15.63 26.56 11.84"/><path class="cls-11" d="M9.23,62.09A.25.25,0,0,1,9,61.91L2.45,39.27a2.4,2.4,0,0,1-2.2-2.39V32.27a2.39,2.39,0,0,1,2.39-2.39H52.07a2.4,2.4,0,0,1,2.39,2.39v4.61a2.4,2.4,0,0,1-2.2,2.39L45.71,61.91a.24.24,0,0,1-.24.18Z"/><path class="cls-3" d="M52.07,30.13a2.15,2.15,0,0,1,2.14,2.14v4.61A2.16,2.16,0,0,1,52.07,39L45.48,61.84H9.23L2.64,39A2.15,2.15,0,0,1,.5,36.88V32.27a2.14,2.14,0,0,1,2.14-2.14H52.07m0-.5H2.64A2.64,2.64,0,0,0,0,32.27v4.61A2.65,2.65,0,0,0,2.26,39.5L8.75,62a.49.49,0,0,0,.48.36H45.48A.5.5,0,0,0,46,62L52.45,39.5a2.66,2.66,0,0,0,2.26-2.62V32.27a2.64,2.64,0,0,0-2.64-2.64Z"/><path class="cls-12" d="M3.85,36.88V32.27A2.15,2.15,0,0,1,6,30.13H2.64A2.14,2.14,0,0,0,.5,32.27v4.61A2.15,2.15,0,0,0,2.64,39L9.23,61.84h3.36L6,39A2.16,2.16,0,0,1,3.85,36.88Z"/><rect class="cls-13" x="0.25" y="29.88" width="54.21" height="9.4" rx="2.39" ry="2.39"/><path class="cls-3" d="M52.07,30.13a2.15,2.15,0,0,1,2.14,2.14v4.61A2.16,2.16,0,0,1,52.07,39H2.64A2.15,2.15,0,0,1,.5,36.88V32.27a2.14,2.14,0,0,1,2.14-2.14H52.07m0-.5H2.64A2.64,2.64,0,0,0,0,32.27v4.61a2.65,2.65,0,0,0,2.64,2.65H52.07a2.65,2.65,0,0,0,2.64-2.65V32.27a2.64,2.64,0,0,0-2.64-2.64Z"/><path class="cls-14" d="M3.85,36.88V32.27A2.15,2.15,0,0,1,6,30.13H2.64A2.14,2.14,0,0,0,.5,32.27v4.61A2.15,2.15,0,0,0,2.64,39H6A2.16,2.16,0,0,1,3.85,36.88Z"/><path class="cls-3" d="M14.92,42.86a.54.54,0,0,0-.54.53V57.48a.54.54,0,0,0,1.07,0V43.39A.53.53,0,0,0,14.92,42.86Z"/><path class="cls-3" d="M39.79,42.86a.53.53,0,0,0-.53.53V57.48a.54.54,0,0,0,1.07,0V43.39A.54.54,0,0,0,39.79,42.86Z"/><path class="cls-3" d="M31.5,42.86a.54.54,0,0,0-.54.53V57.48a.54.54,0,0,0,.54.53.54.54,0,0,0,.54-.53V43.39A.54.54,0,0,0,31.5,42.86Z"/><path class="cls-3" d="M23.21,42.86a.54.54,0,0,0-.54.53V57.48a.54.54,0,0,0,1.07,0V43.39A.53.53,0,0,0,23.21,42.86Z"/></g></g></svg>